<?xml version="1.0" encoding="UTF-8" standalone="no"?>
<!-- Generator: Adobe Illustrator 13.0.2, SVG Export Plug-In . SVG Version: 6.00 Build 14948)  -->

<svg
   xmlns:dc="http://purl.org/dc/elements/1.1/"
   xmlns:cc="http://creativecommons.org/ns#"
   xmlns:rdf="http://www.w3.org/1999/02/22-rdf-syntax-ns#"
   xmlns:svg="http://www.w3.org/2000/svg"
   xmlns="http://www.w3.org/2000/svg"
   xmlns:sodipodi="http://sodipodi.sourceforge.net/DTD/sodipodi-0.dtd"
   xmlns:inkscape="http://www.inkscape.org/namespaces/inkscape"
   version="1.1"
   id="Layer_1"
   x="0px"
   y="0px"
   width="123.547px"
   height="123.539px"
   viewBox="-0.258 -0.548 123.547 123.539"
   style="enable-background:new -0.258 -0.548 123.547 123.539;"
   xml:space="preserve"
   inkscape:version="0.48.2 r9819"
   sodipodi:docname="person_reading.svg"><metadata
   id="metadata19"><rdf:RDF><cc:Work
       rdf:about=""><dc:format>image/svg+xml</dc:format><dc:type
         rdf:resource="http://purl.org/dc/dcmitype/StillImage" /></cc:Work></rdf:RDF></metadata><defs
   id="defs17">
	
	
	
	
	
</defs><sodipodi:namedview
   pagecolor="#00ffff"
   bordercolor="#666666"
   borderopacity="1"
   objecttolerance="10"
   gridtolerance="10"
   guidetolerance="10"
   inkscape:pageopacity="0"
   inkscape:pageshadow="2"
   inkscape:window-width="1278"
   inkscape:window-height="865"
   id="namedview15"
   showgrid="false"
   inkscape:showpageshadow="false"
   showborder="false"
   inkscape:zoom="2.7016116"
   inkscape:cx="0.81178286"
   inkscape:cy="93.798622"
   inkscape:window-x="0"
   inkscape:window-y="0"
   inkscape:window-maximized="0"
   inkscape:current-layer="layer1" />
<path
   inkscape:connector-curvature="0"
   id="path5"
   d="m 108.961,123.191 c 8.156,0 14.773,-6.594 14.773,-14.742 V 14.434 c 0,-8.156 -6.617,-14.766 -14.773,-14.766 H 14.945 C 6.797,-0.332 0.18,6.277 0.18,14.434 v 94.016 c 0,8.148 6.617,14.742 14.766,14.742 h 94.015 z"
   style="fill:none;stroke-width:5.00000012;stroke-miterlimit:4;stroke-dasharray:none;stroke:#000000;stroke-opacity:1" /><path
   inkscape:connector-curvature="0"
   id="path7"
   d="m 14.945,2.168 c -6.758,0 -12.266,5.5 -12.266,12.266 v 94.016 c 0,6.758 5.508,12.258 12.266,12.258 h 94.016 c 6.766,0 12.281,-5.5 12.281,-12.258 V 14.434 c 0,-6.766 -5.516,-12.266 -12.281,-12.266 H 14.945 z m 22.182093,76.405069 2.591046,-27.391058 44.417933,-0.37015 0.37015,27.761208 -14.065679,15.176127 -15.546276,0.740299 z"
   style="fill:#ffffff;fill-opacity:1;fill-rule:evenodd" /><path
   inkscape:connector-curvature="0"
   id="path9"
   d="m 62.18,41.035 c 7.5,0 13.555,-6.094 13.555,-13.586 0,-7.5 -6.055,-13.562 -13.555,-13.562 -7.5,0 -13.562,6.062 -13.562,13.562 -0.001,7.492 6.062,13.586 13.562,13.586 z" /><path
   inkscape:connector-curvature="0"
   id="path13"
   d="m 104.984,106.691 c 1.07,0 1.93,-0.859 1.93,-1.93 l 0,0 c 0,-1.078 -0.859,-1.93 -1.93,-1.93 h -84.68 c -1.047,0 -1.93,0.852 -1.93,1.93 l 0,0 c 0,1.07 0.883,1.93 1.93,1.93 h 84.68 z"
   style="fill:#000000;fill-opacity:1" />
<g
   inkscape:groupmode="layer"
   id="layer2"
   inkscape:label="Layer2" /><g
   inkscape:groupmode="layer"
   id="layer1"
   inkscape:label="Layer"><path
     style="enable-background:new -0.25800000000000001 -0.54800000000000004 123.54700000000000000 123.53900000000000000;fill:#ffffff;stroke:#000000;stroke-width:1px;stroke-linecap:butt;stroke-linejoin:miter;stroke-opacity:1;fill-opacity:0.7842105"
     d="M 62.185104,92.0763 38.86569,83.562863 39.23584,52.470311 84.39407,52.100161 84.023921,82.452415 z"
     id="path3792"
     inkscape:connector-curvature="0"
     transform="translate(-0.258,-0.5480022)" /></g><path
   inkscape:connector-curvature="0"
   id="path11"
   d="m 75.367,44.34 c 6.203,0.219 8.812,5.188 8.812,5.188 l 20.023,27.477 c 0.828,1.219 1.312,2.711 1.312,4.32 0,4.273 -3.461,7.742 -7.734,7.742 -1.023,0 -1.953,-0.227 -2.836,-0.562 L 82.858,85.13 V 97.192 H 40.898 V 85.129 L 28.812,88.504 C 27.96,88.84 27,89.066 25.968,89.066 c -4.273,0 -7.727,-3.469 -7.727,-7.742 0,-1.609 0.477,-3.102 1.344,-4.32 L 39.593,49.527 c 0,0 2.625,-4.969 8.805,-5.188 h 26.969 z m -13.484,44.43 0,0 15.656,-5.203 -0.344,-0.07 C 66.383,80.325 70.586,66.044 81.375,69.231 l 1.484,0.516 V 53.629 L 61.883,60.48 40.899,53.628 v 16.117 l 1.477,-0.516 c 10.805,-3.188 15.016,11.094 4.203,14.266 l -0.352,0.07 15.656,5.205 0,0 z"
   style="fill:#000000;fill-opacity:1" /></svg>